<svg xmlns="http://www.w3.org/2000/svg" viewBox="0 0 24 24" width="60" height="60" fill="white">
  <path d="M6.76 4.84l-1.8-1.79-1.41 1.41 1.79 1.8 1.42-1.42zm10.48 0l1.79-1.79-1.41-1.41-1.8 1.79 1.42 1.41zM12 5.5c-3.58 0-6.5 2.92-6.5 6.5s2.92 6.5 6.5 6.5 6.5-2.92 6.5-6.5-2.92-6.5-6.5-6.5zm0 11c-2.48 0-4.5-2.02-4.5-4.5S9.52 7.5 12 7.5 16.5 9.52 16.5 12 14.48 16.5 12 16.5zm7.5-4.5h2v-2h-2v2zm-17 0h2v-2h-2v2zm14.24 6.66l1.8 1.79 1.41-1.41-1.79-1.8-1.42 1.42zm-10.48 0l-1.79 1.79 1.41 1.41 1.8-1.79-1.42-1.41zM12 18.5h-1v2h2v-2h-1z"/>
</svg>
